<svg id="Layer_1" data-name="Layer 1" xmlns="http://www.w3.org/2000/svg" xmlns:xlink="http://www.w3.org/1999/xlink" viewBox="0 0 1600 800"><defs><style>.cls-1{fill:#2e3192;}.cls-2{opacity:0.2;}.cls-3{fill:aqua;}.cls-10,.cls-11,.cls-12,.cls-13,.cls-14,.cls-15,.cls-3,.cls-38,.cls-39,.cls-4,.cls-40,.cls-41,.cls-42,.cls-43,.cls-5,.cls-6,.cls-7,.cls-8,.cls-9{stroke:#fff;}.cls-10,.cls-11,.cls-12,.cls-13,.cls-14,.cls-15,.cls-3,.cls-38,.cls-39,.cls-4,.cls-40,.cls-41,.cls-42,.cls-43,.cls-44,.cls-45,.cls-46,.cls-47,.cls-48,.cls-5,.cls-6,.cls-7,.cls-8,.cls-9{stroke-miterlimit:10;stroke-width:0.25px;}.cls-4{fill:#54c0eb;}.cls-5{fill:#4cdbc4;}.cls-6{fill:#838bc5;}.cls-7{fill:#0071bc;}.cls-8{fill:url(#Blue_Sky);}.cls-9{fill:#022728;}.cls-10{fill:#00fff2;}.cls-11{fill:#16d8d8;}.cls-12{fill:#ebfffd;}.cls-13,.cls-22{fill:#0b6382;}.cls-14{fill:#0b7f9e;}.cls-15{fill:#29abe2;}.cls-16{fill:#00c4c4;}.cls-17{fill:#08b8bc;}.cls-18{fill:#36fff5;}.cls-19{fill:#5b5b5b;}.cls-20{fill:#3f3f3f;}.cls-21{fill:#686868;}.cls-23{fill:#00233f;}.cls-24{fill:#f45683;}.cls-25{fill:#e2336d;}.cls-26{fill:#00e2e2;}.cls-27{fill:#15819e;}.cls-28,.cls-32{fill:#727272;}.cls-28{opacity:0.2;isolation:isolate;}.cls-29{fill:#fffaf5;}.cls-30{fill:#efebe8;}.cls-31{fill:#cccac8;}.cls-33{fill:#a0d827;}.cls-34{fill:#cff23b;}.cls-35{fill:#f2ae16;}.cls-36{fill:#ffcc4d;}.cls-37{opacity:0.15;}.cls-38{fill:#fff;}.cls-39{fill:#fad24d;}.cls-40{fill:#edb937;}.cls-41{fill:#ecf0f1;}.cls-42{fill:#b6b6b8;}.cls-43{fill:#c2c2c4;}.cls-44{fill:#f7cf52;}.cls-44,.cls-45,.cls-46,.cls-47,.cls-48{stroke:#000;}.cls-45{fill:#76cdce;}.cls-46{fill:#008db3;}.cls-47{fill:#f4581b;}.cls-48{fill:#96e0de;}</style><linearGradient id="Blue_Sky" x1="1320" y1="400" x2="1418.36" y2="400" gradientUnits="userSpaceOnUse"><stop offset="0" stop-color="#3ddeed"/><stop offset="1" stop-color="#3ddeed" stop-opacity="0"/></linearGradient></defs><rect class="cls-1" width="1600" height="800"/><g class="cls-2"><path class="cls-3" d="M331.25,334.06a93.8,93.8,0,0,0-8.75-21.87l7.5-17.5-26.25-25.63-17.5,7.5a84.44,84.44,0,0,0-21.87-8.75l-6.25-18.12H221.25l-6.87,18.12a94.49,94.49,0,0,0-21.88,8.75l-17.5-7.5-25.62,25.63,7.5,17.5a84.46,84.46,0,0,0-8.76,21.87L130,340.94v36.87l18.12,6.88a93.84,93.84,0,0,0,8.76,21.87l-7.5,17.5,26.25,25.63,17.5-7.5A84.44,84.44,0,0,0,215,450.94l6.88,18.12h36.24L265,450.94a94.24,94.24,0,0,0,21.87-8.75l17.5,7.5,26.25-25.63-7.5-17.5a84.09,84.09,0,0,0,8.75-21.87L350,377.81V340.94Zm-91.87,70a45,45,0,1,1,45-45A44.81,44.81,0,0,1,239.38,404.06Z"/><path class="cls-4" d="M271.25,390.94a44.52,44.52,0,0,1-63.13,0l-16.24,16.25a67.9,67.9,0,0,0,95.62,0c26.25-26.25,26.25-68.75,0-95.63l-16.25,16.25A44.52,44.52,0,0,1,271.25,390.94Z"/><path class="cls-4" d="M191.88,311.56c-26.26,26.25-26.26,68.75,0,95.63l16.24-16.25a44.64,44.64,0,0,1,63.13-63.13l16.25-16.25A67.9,67.9,0,0,0,191.88,311.56Z"/><path class="cls-5" d="M341.88,505.94a30.61,30.61,0,0,0,0-10.63l6.25-6.25-6.25-15.62h-8.75c-1.88-2.5-5-5-7.51-7.5v-8.75L310,450.94l-6.25,6.25a30.07,30.07,0,0,0-10.62,0l-6.25-6.25-15.63,6.25v8.75c-2.5,1.87-5,5-7.5,7.5H255l-6.25,15.62,6.25,6.25a30.61,30.61,0,0,0,0,10.63l-6.25,6.25L255,527.81h8.75c1.88,2.5,5,5,7.5,7.5v8.75l15.63,6.25,6.25-6.25a30.07,30.07,0,0,0,10.62,0l6.25,6.25,15.62-6.25v-8.75c2.51-1.87,5-5,7.51-7.5h8.75l6.25-15.62Zm-50,13.12c-10.63-4.37-15.63-16.25-11.25-26.25,4.37-10.62,16.25-15.62,26.25-11.25,10.62,4.38,15.62,16.25,11.25,26.25C313.75,518.44,301.88,523.44,291.88,519.06Z"/><path class="cls-3" d="M423.75,424.06a30.07,30.07,0,0,0,0-10.62l6.25-6.25-6.25-15.63H415c-1.88-2.5-5-5-7.5-7.5v-8.75l-15.63-6.25-6.25,6.25a30.55,30.55,0,0,0-10.62,0l-6.25-6.25-15.62,6.25v8.75c-2.5,1.88-5,5-7.5,7.5h-8.76l-6.25,15.63,6.25,6.25a30.55,30.55,0,0,0,0,10.62l-6.25,6.25,6.25,15.63h8.76c1.87,2.5,5,5,7.5,7.5v8.75l15.62,6.25,6.25-6.25a30.55,30.55,0,0,0,10.62,0l6.25,6.25,15.63-6.25v-8.75c2.5-1.88,5-5,7.5-7.5h8.75L430,430.31Zm-50.62,13.75c-10.63-4.37-15.63-16.25-11.25-26.25,4.37-10.62,16.25-15.62,26.25-11.25,10.62,4.38,15.62,16.25,11.25,26.25C395.63,437.19,383.75,442.19,373.13,437.81Z"/></g><g class="cls-2"><path class="cls-6" d="M1418.36,363.85c0,86.56-46.72,178.53-98.36,178.53s-98.36-91.48-98.36-178.53,47.21-106.23,98.36-106.23S1418.36,277.3,1418.36,363.85Z"/><path class="cls-7" d="M1320,257.62c51.15,0,98.36,19.68,98.36,106.23S1371.64,542.38,1320,542.38s-98.36-91.48-98.36-178.53"/><path class="cls-8" d="M1320,257.62c51.15,0,98.36,19.68,98.36,106.23S1371.64,542.38,1320,542.38"/><path class="cls-9" d="M1296.89,306.8c0,8.36-6.89,21.64-15.74,21.64-8.36,0-15.74-12.78-15.74-21.64a15.74,15.74,0,0,1,31.48,0Z"/><circle class="cls-10" cx="1281.15" cy="306.8" r="15.74"/><path class="cls-11" d="M1269.84,295.49c5.9-5.9,15.73-5.9,22.13,0,5.9,5.9,5.9,15.74,0,22.13"/><circle class="cls-10" cx="1281.15" cy="306.8" r="8.85"/><path class="cls-11" d="M1281.15,315.66a8.86,8.86,0,0,1,0-17.71"/><circle class="cls-12" cx="1274.26" cy="299.92" r="5.41"/><circle class="cls-12" cx="1290" cy="314.67" r="2.46"/><path class="cls-13" d="M1374.59,306.8c0,8.36-6.89,21.64-15.74,21.64-8.36,0-15.74-12.78-15.74-21.64a15.84,15.84,0,0,1,15.74-15.73A15.53,15.53,0,0,1,1374.59,306.8Z"/><circle class="cls-10" cx="1358.85" cy="306.8" r="15.74"/><path class="cls-11" d="M1348,295.49c5.9-5.9,15.74-5.9,22.13,0,5.91,5.9,5.91,15.74,0,22.13"/><circle class="cls-10" cx="1358.85" cy="306.8" r="8.85"/><path class="cls-11" d="M1358.85,315.66a8.86,8.86,0,0,1,0-17.71"/><circle class="cls-12" cx="1351.97" cy="299.92" r="5.41"/><circle class="cls-12" cx="1367.7" cy="314.67" r="2.46"/><path class="cls-10" d="M1281.64,344.67,1261,320.08h-37.87l-1,9.84h34.92l23.61,24.59h34.42v-9.84Z"/><polyline class="cls-11" points="1221.64 329.92 1257.05 329.92 1280.66 354.51 1280.66 354.51 1280.66 354.51 1315.08 354.51 1315.08 351.56 1281.15 348.61 1260.98 325 1260.98 325"/><path class="cls-10" d="M1358.36,344.67,1379,320.08h37.87l1,9.84H1383l-23.61,24.59h-34.42v-9.84Z"/><polyline class="cls-11" points="1418.36 329.92 1382.95 329.92 1359.34 354.51 1359.34 354.51 1359.34 354.51 1324.92 354.51 1324.92 351.56 1358.85 348.61 1379.02 325 1379.02 325"/><circle class="cls-10" cx="1320" cy="348.11" r="9.84"/><path class="cls-11" d="M1329.84,348.11a9.84,9.84,0,0,1-19.68,0"/><path class="cls-14" d="M1222.13,364.34l-.49-1c0,.49-.49.49-.49,1,0,57.55,19.67,116.07,49.18,149.51V381.07l-18.2-16.73Z"/><path class="cls-15" d="M1222.13,360.9l-.49,1c0,.49-.49,1.47-.49,2,0,57.54,19.67,117,49.18,150.49V379.1"/><path class="cls-14" d="M1417.38,364.34l.49-1c0,.49.49.49.49,1,0,57.55-19.67,113.61-49.18,147.55V381.07l18.2-16.73Z"/><path class="cls-15" d="M1417.87,360.9v1c0,.49.49,1.47.49,2,0,57.54-19.67,117-49.18,150.49V379.1"/><circle class="cls-3" cx="1195.08" cy="445" r="25.08"/><path class="cls-6" d="M1195.08,420.41a25.08,25.08,0,1,1,0,50.16"/><circle class="cls-6" cx="1195.08" cy="409.59" r="5.9"/><polyline class="cls-6" points="1197.05 403.69 1197.05 379.1 1211.8 379.1 1211.8 359.43 1221.64 359.43"/><ellipse class="cls-14" cx="1224.1" cy="386.47" rx="8.36" ry="24.59" transform="translate(-26.68 97.78) rotate(-4.53)"/><ellipse class="cls-13" cx="1221.14" cy="386.48" rx="3.44" ry="14.75" transform="translate(-26.66 97.43) rotate(-4.52)"/><circle class="cls-11" cx="1242.3" cy="387.46" r="1.97"/><circle class="cls-11" cx="1250.16" cy="385" r="1.97"/><circle class="cls-11" cx="1258.03" cy="383.03" r="1.97"/><path class="cls-10" d="M1206.89,450.41a2.33,2.33,0,0,1-2.46,2.46h-19.68a2.32,2.32,0,0,1-2.45-2.46h0a2.32,2.32,0,0,1,2.45-2.46h19.68a2.33,2.33,0,0,1,2.46,2.46Z"/><ellipse class="cls-3" cx="1444.62" cy="445" rx="24.79" ry="25.08"/><path class="cls-6" d="M1444.92,420.41a25.08,25.08,0,0,0,0,50.16"/><circle class="cls-6" cx="1444.92" cy="409.59" r="5.9"/><polyline class="cls-6" points="1442.95 403.69 1442.95 379.1 1428.2 379.1 1428.2 359.43 1418.36 359.43"/><ellipse class="cls-14" cx="1416.17" cy="386.62" rx="24.59" ry="8.36" transform="translate(919.02 1767.86) rotate(-85.47)"/><ellipse class="cls-13" cx="1418.75" cy="386.86" rx="14.75" ry="3.44" transform="translate(921.3 1770.71) rotate(-85.48)"/><circle class="cls-11" cx="1397.7" cy="387.46" r="1.97"/><circle class="cls-11" cx="1389.84" cy="385" r="1.97"/><circle class="cls-11" cx="1381.97" cy="383.03" r="1.97"/><path class="cls-10" d="M1457.7,450.41a2.32,2.32,0,0,0-2.45-2.46h-19.68a2.33,2.33,0,0,0-2.46,2.46h0a2.33,2.33,0,0,0,2.46,2.46h19.68a2.32,2.32,0,0,0,2.45-2.46Z"/></g><g class="cls-2"><path class="cls-16" d="M862.5,774.52V756.73c0-13.22-10.58-23.08-23.8-23.08H761.3c-13.22,0-23.8,9.62-23.8,23.08v17.79Z"/><polyline class="cls-17" points="737.5 757.69 737.5 774.52 862.5 774.52 862.5 757.69"/><ellipse class="cls-18" cx="800" cy="737.5" rx="17.79" ry="15.87"/><path class="cls-19" d="M819.23,731c0,10.34-7.69,18.27-18.75,18.51h0c-10.34,0-19.71-8.17-19.71-18.51v-9.86a18.78,18.78,0,0,1,18.75-18.75h1.2a18.78,18.78,0,0,1,18.75,18.75V731Z"/><path class="cls-20" d="M800.24,703.12h0a19,19,0,0,1,19,18.75V731c0,10.34-7.45,18.27-18.75,18.51h0"/><polyline class="cls-21" points="819.23 726.44 819.23 724.04 780.77 724.04 780.77 726.44"/><path class="cls-22" d="M801.2,645.91a1.14,1.14,0,0,1-1.2,1.21h0a1.14,1.14,0,0,1-1.2-1.21V626.68a1.13,1.13,0,0,1,1.2-1.2h0a1.13,1.13,0,0,1,1.2,1.2Z"/><path class="cls-23" d="M800,625.48h0c1,0,1.2.72,1.2,1.44v19c0,1-.24,1.21-1.2,1.21h0"/><rect class="cls-24" x="795.19" y="644.71" width="9.62" height="9.62"/><polyline class="cls-25" points="795.19 644.71 804.81 644.71 804.81 654.33"/><rect class="cls-26" x="798.8" y="645.91" width="2.4" height="2.4"/><polygon class="cls-27" points="798.8 629.33 801.2 629.33 801.2 628.61 798.8 628.61 798.8 629.33"/><polygon class="cls-27" points="798.8 632.45 801.2 632.45 801.2 631.73 798.8 631.73 798.8 632.45"/><polygon class="cls-27" points="798.8 635.58 801.2 635.58 801.2 634.86 798.8 634.86 798.8 635.58"/><polygon class="cls-27" points="798.8 638.46 801.2 638.46 801.2 637.74 798.8 637.74 798.8 638.46"/><polygon class="cls-27" points="798.8 641.59 801.2 641.59 801.2 640.87 798.8 640.87 798.8 641.59"/><path class="cls-22" d="M766.35,666.11a4.93,4.93,0,0,1-5.05,5h-6.73a4.92,4.92,0,0,1-5.05-5V654.57a4.93,4.93,0,0,1,5.05-5.05h6.73a4.93,4.93,0,0,1,5.05,5.05Z"/><path class="cls-23" d="M754.33,649.52h6.73c2.88,0,5.29,1.92,5.29,4.81v10.81c0,2.89-2.65,6-5.29,6h-6.73"/><path class="cls-22" d="M848.08,666.11a4.93,4.93,0,0,1-5.05,5H836.3a4.92,4.92,0,0,1-5-5V654.57a4.93,4.93,0,0,1,5-5.05H843a4.93,4.93,0,0,1,5.05,5.05Z"/><path class="cls-23" d="M838.46,649.52h4.81a4.55,4.55,0,0,1,4.81,4.81v10.81c0,2.89-1.93,6-4.81,6h-4.81"/><path class="cls-26" d="M870.19,697.12c0,13.46-18.27,24.51-31.73,29.32H761.54c-13.46-4.81-31.73-15.86-31.73-29.32L725,676.92c0-13.46,11.06-25,24.76-25H850.48c13.46,0,24.52,11.54,24.52,25Z"/><path class="cls-16" d="M875,677.4l-4.81,19.72c0,13.46-18.27,24.51-31.73,29.32H761.54c-27.65-9.13-31.73-15.86-31.73-29.32L725,677.4"/><path class="cls-17" d="M870.19,697.12c0,13.46-18.27,24.51-31.73,29.32H761.54c-30.53-9.61-31.73-18.51-31.73-29.32"/><circle class="cls-22" cx="757.93" cy="686.78" r="24.52"/><circle class="cls-28" cx="757.93" cy="689.42" r="24.52"/><path class="cls-23" d="M757.93,662.26a24.52,24.52,0,1,1,0,49"/><circle class="cls-29" cx="757.93" cy="686.78" r="16.59"/><circle class="cls-29" cx="757.93" cy="686.78" r="16.59"/><path class="cls-30" d="M746.39,675A16.66,16.66,0,1,1,770,698.56"/><path class="cls-31" d="M757.93,674.52c8.9,0,16.11,4.33,16.59,13.22v-1a16.59,16.59,0,1,0-33.17,0v1C742.07,679.09,749.28,674.52,757.93,674.52Z"/><circle class="cls-31" cx="752.88" cy="666.11" r="0.96"/><circle class="cls-31" cx="757.93" cy="666.11" r="0.96"/><circle class="cls-31" cx="763.22" cy="666.11" r="0.96"/><path class="cls-32" d="M761.3,686.78a3.13,3.13,0,1,1-3.13-3.13A3.18,3.18,0,0,1,761.3,686.78Z"/><path class="cls-20" d="M757.93,683.65a3.13,3.13,0,1,1,0,6.25"/><circle class="cls-29" cx="756.73" cy="685.34" r="0.96"/><circle class="cls-29" cx="759.37" cy="688.22" r="0.48"/><circle class="cls-22" cx="840.38" cy="686.78" r="24.52"/><circle class="cls-28" cx="840.38" cy="689.42" r="24.52"/><path class="cls-23" d="M840.38,662.26a24.52,24.52,0,0,1,0,49"/><circle class="cls-29" cx="840.38" cy="686.78" r="16.59"/><circle class="cls-29" cx="840.38" cy="686.78" r="16.59"/><path class="cls-30" d="M828.61,675a16.66,16.66,0,0,1,23.55,23.56"/><path class="cls-31" d="M840.38,674.52c8.9,0,16.11,4.33,16.59,13.22v-1a16.59,16.59,0,1,0-33.17,0v1C824.28,679.09,831.49,674.52,840.38,674.52Z"/><circle class="cls-31" cx="835.34" cy="666.11" r="0.96"/><circle class="cls-31" cx="840.38" cy="666.11" r="0.96"/><circle class="cls-31" cx="845.43" cy="666.11" r="0.96"/><path class="cls-32" d="M843.51,686.78a3.13,3.13,0,1,1-3.13-3.13A3.18,3.18,0,0,1,843.51,686.78Z"/><path class="cls-20" d="M840.38,683.65a3.13,3.13,0,1,1,0,6.25"/><circle class="cls-29" cx="839.18" cy="685.34" r="0.96"/><circle class="cls-29" cx="841.59" cy="688.22" r="0.48"/><path class="cls-18" d="M756.25,656.73h0a2.37,2.37,0,0,1,2.16-2.4h83.42a2.32,2.32,0,0,1,2.16,2.16h0"/><rect class="cls-21" x="780.77" y="728.85" width="38.46" height="2.4"/><rect class="cls-33" x="749.52" y="750.48" width="9.62" height="9.62"/><polygon class="cls-34" points="756.73 755.29 749.52 758.65 749.52 750.48 756.73 750.48 756.73 755.29"/><rect class="cls-35" x="761.54" y="750.48" width="9.62" height="9.62"/><polygon class="cls-36" points="768.75 755.29 761.54 758.65 761.54 750.48 768.75 750.48 768.75 755.29"/><path class="cls-18" d="M848.08,751.68a1.14,1.14,0,0,1-1.21,1.2H830.05a1.13,1.13,0,0,1-1.2-1.2h0a1.13,1.13,0,0,1,1.2-1.2h16.82a1.14,1.14,0,0,1,1.21,1.2Z"/><path class="cls-18" d="M848.08,758.89a1.14,1.14,0,0,1-1.21,1.21H830.05a1.14,1.14,0,0,1-1.2-1.21h0a1.13,1.13,0,0,1,1.2-1.2h16.82a1.14,1.14,0,0,1,1.21,1.2Z"/><path class="cls-18" d="M848.08,766.11a1.14,1.14,0,0,1-1.21,1.2H830.05a1.13,1.13,0,0,1-1.2-1.2h0a1.14,1.14,0,0,1,1.2-1.21h16.82a1.14,1.14,0,0,1,1.21,1.21Z"/><polygon class="cls-24" points="814.42 701.68 800 716.11 785.58 701.68 800 706.25 814.42 701.68"/><polygon class="cls-25" points="814.42 701.68 800 716.11 785.58 701.68 800 710.34 814.42 701.68"/><circle class="cls-24" cx="800" cy="659.86" r="4.57"/><path class="cls-25" d="M804.57,659.86a4.57,4.57,0,0,1-4.57,4.56,4.42,4.42,0,0,1-4.57-4.56"/><path class="cls-25" d="M800.72,695.19a.77.77,0,0,1-.72.72h0a.77.77,0,0,1-.72-.72V663.7A.77.77,0,0,1,800,663h0a.77.77,0,0,1,.72.72Z"/></g><g class="cls-37"><path class="cls-7" d="M800,423.17c47.33,0,85.69,3,85.69,6.76s-38.36,6.75-85.69,6.75-85.69-3-85.69-6.75S752.67,423.17,800,423.17Z"/><path class="cls-38" d="M710.67,263.32H889.33A10.7,10.7,0,0,1,900,274V384H700V274A10.7,10.7,0,0,1,710.67,263.32Z"/><path class="cls-7" d="M707.25,376.79h185.5V274a3.45,3.45,0,0,0-3.42-3.43H710.67a3.45,3.45,0,0,0-3.42,3.43v102.8Z"/><path class="cls-7" d="M900,384v11.67c0,5.87-5.29,10.68-11.76,10.68H711.76c-6.47,0-11.76-4.81-11.76-10.68V384Z"/><path class="cls-39" d="M802.1,303.69a26,26,0,1,1-26,26A26,26,0,0,1,802.1,303.69Z"/><path class="cls-40" d="M802.1,308.69a21,21,0,1,1-21,21A21,21,0,0,1,802.1,308.69Z"/><path class="cls-38" d="M796.81,322.81a7.18,7.18,0,0,1,1-4,4.78,4.78,0,0,1,3.07-2v-1.84h3.18v1.84a4.67,4.67,0,0,1,3.12,2,7.08,7.08,0,0,1,1,4.07v.78h-3.67v-1a2.73,2.73,0,0,0-.51-1.88,2.13,2.13,0,0,0-2.86,0,2.73,2.73,0,0,0-.51,1.88,4.06,4.06,0,0,0,.57,2.19,8,8,0,0,0,1.41,1.71c.56.53,1.17,1.05,1.82,1.56a13.22,13.22,0,0,1,1.81,1.71,8.57,8.57,0,0,1,1.42,2.2,7.43,7.43,0,0,1,.56,3,7.09,7.09,0,0,1-1.06,4.09,4.75,4.75,0,0,1-3.14,2v1.8H800.9V341a4.68,4.68,0,0,1-3.15-2,7.17,7.17,0,0,1-1-4.09v-1.69h3.67v1.94a2.58,2.58,0,0,0,.55,1.87,2,2,0,0,0,1.47.53,2,2,0,0,0,1.46-.53,2.55,2.55,0,0,0,.55-1.87,4.06,4.06,0,0,0-.57-2.19,8,8,0,0,0-1.41-1.71,23.47,23.47,0,0,0-1.82-1.55,13.94,13.94,0,0,1-1.81-1.72,8.29,8.29,0,0,1-1.41-2.2,7.27,7.27,0,0,1-.57-3Z"/><path class="cls-39" d="M756.21,288.89a15,15,0,1,1-15,15A15,15,0,0,1,756.21,288.89Z"/><path class="cls-40" d="M756.21,291.79a12.14,12.14,0,1,1-12.15,12.14A12.14,12.14,0,0,1,756.21,291.79Z"/><path class="cls-38" d="M753.15,300a4.14,4.14,0,0,1,.59-2.34,2.77,2.77,0,0,1,1.78-1.15v-1.06h1.84v1.06a2.71,2.71,0,0,1,1.8,1.13,4.15,4.15,0,0,1,.61,2.36v.45h-2.13v-.59a1.67,1.67,0,0,0-.29-1.1,1.09,1.09,0,0,0-.83-.31,1.08,1.08,0,0,0-.83.31,1.61,1.61,0,0,0-.3,1.1,2.32,2.32,0,0,0,.33,1.26,4.79,4.79,0,0,0,.82,1c.32.3.68.6,1.05.89a9,9,0,0,1,1,1,4.86,4.86,0,0,1,.82,1.27,4.24,4.24,0,0,1,.33,1.75,4.13,4.13,0,0,1-.62,2.37,2.71,2.71,0,0,1-1.81,1.14v1h-1.84v-1a2.71,2.71,0,0,1-1.83-1.14,4.2,4.2,0,0,1-.6-2.37v-1h2.12v1.12a1.47,1.47,0,0,0,.32,1.08,1.31,1.31,0,0,0,1.69,0,1.47,1.47,0,0,0,.32-1.08,2.38,2.38,0,0,0-.33-1.27,5,5,0,0,0-.81-1c-.33-.3-.68-.6-1.06-.9a8.12,8.12,0,0,1-1.05-1,4.86,4.86,0,0,1-.82-1.27,4.41,4.41,0,0,1-.32-1.75Z"/><path class="cls-39" d="M837.56,276.8A11.59,11.59,0,1,1,826,288.39,11.59,11.59,0,0,1,837.56,276.8Z"/><path class="cls-40" d="M837.56,279a9.36,9.36,0,1,1-9.36,9.36A9.37,9.37,0,0,1,837.56,279Z"/><path class="cls-38" d="M835.2,285.33a3.22,3.22,0,0,1,.46-1.8,2.11,2.11,0,0,1,1.37-.89v-.82h1.42v.82a2.1,2.1,0,0,1,1.39.87,3.21,3.21,0,0,1,.47,1.82v.35h-1.64v-.46a1.22,1.22,0,0,0-.23-.84.83.83,0,0,0-.64-.24.86.86,0,0,0-.64.24,1.23,1.23,0,0,0-.22.84,1.81,1.81,0,0,0,.25,1,3.74,3.74,0,0,0,.63.76,9.17,9.17,0,0,0,.81.69,6.54,6.54,0,0,1,.81.77,3.92,3.92,0,0,1,.63,1,3.29,3.29,0,0,1,.25,1.35,3.25,3.25,0,0,1-.47,1.83,2.16,2.16,0,0,1-1.4.88v.8H837v-.8a2.13,2.13,0,0,1-1.41-.88,3.25,3.25,0,0,1-.46-1.83V290h1.63v.87a1.13,1.13,0,0,0,.25.84,1,1,0,0,0,1.3,0,1.13,1.13,0,0,0,.25-.84,1.93,1.93,0,0,0-.25-1,4,4,0,0,0-.63-.76c-.26-.24-.53-.47-.82-.69a7.28,7.28,0,0,1-.81-.77,3.92,3.92,0,0,1-.63-1,3.39,3.39,0,0,1-.25-1.35Z"/><path class="cls-41" d="M792.63,285v17.89h-1.46V285Zm8.28-5.38V294.7h-1.47V279.62ZM810,285v17.89h-1.47V285Z"/><path class="cls-42" d="M862.69,361.22,854.38,355l4.43-5.9-24.58-5.56,12.22,22,4.43-5.91,8.3,6.23,3.51-4.68Z"/><path class="cls-41" d="M817.1,348.3a1.14,1.14,0,0,1,0-2.28l9.06-.11a1.14,1.14,0,0,1,0,2.27Zm13,4.8a1.14,1.14,0,0,1,1.79,1.4L824,364.62a1.14,1.14,0,0,1-1.79-1.4Zm22.32-26.91a1.14,1.14,0,1,1,1.79,1.4l-7.89,10.11a1.13,1.13,0,1,1-1.79-1.39ZM835,325a1.14,1.14,0,0,1,2.21-.56l2.23,8.78a1.14,1.14,0,1,1-2.21.56L835,325Zm-15.66,5.84a1.14,1.14,0,1,1,1.54-1.68l9.62,8.84a1.14,1.14,0,0,1-1.54,1.68l-9.62-8.84Z"/><circle class="cls-42" cx="800" cy="394.75" r="3.67"/><path class="cls-43" d="M823.07,423.17l17,5.44H760l13.7-5.44V406.39h49.41v16.78Z"/><path class="cls-42" d="M823.07,423.17l-49.41-16.78h49.41Z"/><path class="cls-41" d="M773.66,423.17h49.41l17,5.44V431H760v-2.34l13.69-5.44Z"/></g><g class="cls-2"><polygon class="cls-44" points="792.56 135.51 788.16 143.64 766.18 121.66 774.3 117.26 792.56 135.51"/><path class="cls-45" d="M815.85,105.32a9.9,9.9,0,0,1-1.45.1,10,10,0,1,1,0-20,9.9,9.9,0,0,1,1.45.11,10,10,0,0,1,0,19.81Z"/><polygon class="cls-44" points="792.81 88.69 769.27 112.23 754.81 109.55 773.14 91.23 792.81 88.69"/><polygon class="cls-44" points="821.13 117 818.59 136.68 800.26 155 797.59 140.54 821.13 117"/><path class="cls-46" d="M834.26,75.55a21.64,21.64,0,0,0,13.46,6.28,52,52,0,0,1-13,21.53L821.13,117l-23.55,23.54-5-5L774.3,117.26l-5-5,23.54-23.54h0L806.46,75A51.94,51.94,0,0,1,828,62.1,21.52,21.52,0,0,0,834.26,75.55Zm-12.78,26.94a10,10,0,1,0-14.16,0A10,10,0,0,0,821.48,102.49Z"/><path class="cls-44" d="M849.61,60.21a52.1,52.1,0,0,1-1.89,21.62A21.71,21.71,0,0,1,828,62.1,51.92,51.92,0,0,1,849.61,60.21Z"/><rect class="cls-47" x="749.7" y="144.55" width="27.92" height="3.95" transform="translate(120.06 582.91) rotate(-45)"/><rect class="cls-47" x="758.74" y="148.45" width="23.67" height="3.95" transform="translate(119.33 588.93) rotate(-45)"/><rect class="cls-47" x="747.93" y="137.64" width="23.67" height="3.95" transform="translate(123.8 578.13) rotate(-45)"/><path class="cls-48" d="M815.85,105.32V85.51a10,10,0,0,1,0,19.81Z"/></g></svg>